<svg width="100" height="100" viewBox="0 0 100 100" fill="none" xmlns="http://www.w3.org/2000/svg">
<g clip-path="url(#clip0_239_4879)">
<rect width="100" height="100" fill="#0A7301"/>
<circle cx="50" cy="50" r="50" fill="white"/>
<path d="M37.2955 40.8409C37.1136 39.0076 36.3333 37.5833 34.9545 36.5682C33.5758 35.553 31.7045 35.0455 29.3409 35.0455C27.7348 35.0455 26.3788 35.2727 25.2727 35.7273C24.1667 36.1667 23.3182 36.7803 22.7273 37.5682C22.1515 38.3561 21.8636 39.25 21.8636 40.25C21.8333 41.0833 22.0076 41.8106 22.3864 42.4318C22.7803 43.053 23.3182 43.5909 24 44.0455C24.6818 44.4848 25.4697 44.8712 26.3636 45.2045C27.2576 45.5227 28.2121 45.7955 29.2273 46.0227L33.4091 47.0227C35.4394 47.4773 37.303 48.0833 39 48.8409C40.697 49.5985 42.1667 50.5303 43.4091 51.6364C44.6515 52.7424 45.6136 54.0455 46.2955 55.5455C46.9924 57.0455 47.3485 58.7652 47.3636 60.7045C47.3485 63.553 46.6212 66.0227 45.1818 68.1136C43.7576 70.1894 41.697 71.803 39 72.9545C36.3182 74.0909 33.0833 74.6591 29.2955 74.6591C25.5379 74.6591 22.2652 74.0833 19.4773 72.9318C16.7045 71.7803 14.5379 70.0758 12.9773 67.8182C11.4318 65.5455 10.6212 62.7348 10.5455 59.3864H20.0682C20.1742 60.947 20.6212 62.25 21.4091 63.2955C22.2121 64.3258 23.2803 65.1061 24.6136 65.6364C25.9621 66.1515 27.4848 66.4091 29.1818 66.4091C30.8485 66.4091 32.2955 66.1667 33.5227 65.6818C34.7652 65.197 35.7273 64.5227 36.4091 63.6591C37.0909 62.7955 37.4318 61.803 37.4318 60.6818C37.4318 59.6364 37.1212 58.7576 36.5 58.0455C35.8939 57.3333 35 56.7273 33.8182 56.2273C32.6515 55.7273 31.2197 55.2727 29.5227 54.8636L24.4545 53.5909C20.5303 52.6364 17.4318 51.1439 15.1591 49.1136C12.8864 47.0833 11.7576 44.3485 11.7727 40.9091C11.7576 38.0909 12.5076 35.6288 14.0227 33.5227C15.553 31.4167 17.6515 29.7727 20.3182 28.5909C22.9848 27.4091 26.0152 26.8182 29.4091 26.8182C32.8636 26.8182 35.8788 27.4091 38.4545 28.5909C41.0455 29.7727 43.0606 31.4167 44.5 33.5227C45.9394 35.6288 46.6818 38.0682 46.7273 40.8409H37.2955ZM53.983 74V27.4545H72.3466C75.8769 27.4545 78.8845 28.1288 81.3693 29.4773C83.8542 30.8106 85.7481 32.6667 87.0511 35.0455C88.3693 37.4091 89.0284 40.1364 89.0284 43.2273C89.0284 46.3182 88.3617 49.0455 87.0284 51.4091C85.6951 53.7727 83.7633 55.6136 81.233 56.9318C78.7178 58.25 75.6723 58.9091 72.0966 58.9091H60.392V51.0227H70.5057C72.3996 51.0227 73.9602 50.697 75.1875 50.0455C76.4299 49.3788 77.3542 48.4621 77.9602 47.2955C78.5814 46.1136 78.892 44.7576 78.892 43.2273C78.892 41.6818 78.5814 40.3333 77.9602 39.1818C77.3542 38.0151 76.4299 37.1136 75.1875 36.4773C73.9451 35.8258 72.3693 35.5 70.4602 35.5H63.8239V74H53.983Z" fill="#0A7301"/>
</g>
<defs>
<clipPath id="clip0_239_4879">
<rect width="100" height="100" fill="white"/>
</clipPath>
</defs>
</svg>
